<svg width="190" height="97" viewBox="0 0 190 97" fill="none" xmlns="http://www.w3.org/2000/svg">
<g clip-path="url(#clip0_170_52)">
<rect width="189.38" height="97" rx="20" fill="#FF0000"/>
<rect x="-28.2628" y="0.615432" width="242.165" height="12.0867" transform="rotate(45 -28.2628 0.615432)" fill="#166800" stroke="white"/>
<rect x="-0.501709" y="-27.1453" width="242.165" height="12.0867" transform="rotate(45 -0.501709 -27.1453)" fill="#166800" stroke="white"/>
<rect x="13.8928" y="-41.5401" width="242.165" height="12.0867" transform="rotate(45 13.8928 -41.5401)" fill="#166800" stroke="white"/>
<rect x="-14.8965" y="-12.7509" width="242.165" height="10.6326" transform="rotate(45 -14.8965 -12.7509)" fill="#166800" stroke="white"/>
<rect x="-42.6573" y="15.0102" width="242.165" height="10.6326" transform="rotate(45 -42.6573 15.0102)" fill="#166800" stroke="white"/>
<rect x="41.6505" y="-69.5319" width="242.165" height="12.0867" transform="rotate(45 41.6505 -69.5319)" fill="#166800" stroke="white"/>
<rect x="69.4116" y="-97.2928" width="242.165" height="12.0867" transform="rotate(45 69.4116 -97.2928)" fill="#166800" stroke="white"/>
<rect x="55.0168" y="-82.8982" width="242.165" height="10.6326" transform="rotate(45 55.0168 -82.8982)" fill="#166800" stroke="white"/>
<rect x="27.2559" y="-55.1371" width="242.165" height="10.6326" transform="rotate(45 27.2559 -55.1371)" fill="#166800" stroke="white"/>
<path d="M60.2969 49.5156L66.3438 50.2031C66.0104 51.4635 65.4635 52.5573 64.7031 53.4844C63.9427 54.401 62.9688 55.1146 61.7812 55.625C60.6042 56.1354 59.1042 56.3906 57.2812 56.3906C55.5208 56.3906 54.0521 56.2292 52.875 55.9062C51.7083 55.5729 50.7031 55.0417 49.8594 54.3125C49.0156 53.5729 48.3542 52.7083 47.875 51.7188C47.3958 50.7292 47.1562 49.4167 47.1562 47.7812C47.1562 46.0729 47.4479 44.651 48.0312 43.5156C48.4583 42.6823 49.0417 41.9375 49.7812 41.2812C50.5208 40.6146 51.2812 40.1198 52.0625 39.7969C53.3021 39.2865 54.8906 39.0312 56.8281 39.0312C59.5365 39.0312 61.599 39.5156 63.0156 40.4844C64.4427 41.4531 65.4427 42.8698 66.0156 44.7344L60.0312 45.5312C59.8438 44.8229 59.5 44.2917 59 43.9375C58.5104 43.5729 57.849 43.3906 57.0156 43.3906C55.9635 43.3906 55.1094 43.7708 54.4531 44.5312C53.8073 45.2812 53.4844 46.4219 53.4844 47.9531C53.4844 49.3177 53.8073 50.3542 54.4531 51.0625C55.099 51.7708 55.9219 52.125 56.9219 52.125C57.7552 52.125 58.4531 51.9115 59.0156 51.4844C59.5885 51.0573 60.0156 50.401 60.2969 49.5156ZM83.25 44.0625H78.6406V56H72.2656V44.0625H67.6562V39.4219H83.25V44.0625ZM91.3125 44.7812L85.2344 44.1406C85.4635 43.0781 85.7917 42.2448 86.2188 41.6406C86.6562 41.026 87.2812 40.4948 88.0938 40.0469C88.6771 39.724 89.4792 39.474 90.5 39.2969C91.5208 39.1198 92.625 39.0312 93.8125 39.0312C95.7188 39.0312 97.25 39.1406 98.4062 39.3594C99.5625 39.5677 100.526 40.0104 101.297 40.6875C101.839 41.1562 102.266 41.8229 102.578 42.6875C102.891 43.5417 103.047 44.3594 103.047 45.1406V52.4688C103.047 53.25 103.094 53.8646 103.188 54.3125C103.292 54.75 103.51 55.3125 103.844 56H97.875C97.6354 55.5729 97.4792 55.25 97.4062 55.0312C97.3333 54.8021 97.2604 54.4479 97.1875 53.9688C96.3542 54.7708 95.526 55.3438 94.7031 55.6875C93.5781 56.1458 92.2708 56.375 90.7812 56.375C88.8021 56.375 87.2969 55.9167 86.2656 55C85.2448 54.0833 84.7344 52.9531 84.7344 51.6094C84.7344 50.349 85.1042 49.3125 85.8438 48.5C86.5833 47.6875 87.9479 47.0833 89.9375 46.6875C92.3229 46.2083 93.8698 45.875 94.5781 45.6875C95.2865 45.4896 96.0365 45.2344 96.8281 44.9219C96.8281 44.1406 96.6667 43.5938 96.3438 43.2812C96.0208 42.9688 95.4531 42.8125 94.6406 42.8125C93.599 42.8125 92.8177 42.9792 92.2969 43.3125C91.8906 43.5729 91.5625 44.0625 91.3125 44.7812ZM96.8281 48.125C95.9531 48.4375 95.0417 48.7135 94.0938 48.9531C92.8021 49.2969 91.9844 49.6354 91.6406 49.9688C91.2865 50.3125 91.1094 50.7031 91.1094 51.1406C91.1094 51.6406 91.2812 52.0521 91.625 52.375C91.9792 52.6875 92.4948 52.8438 93.1719 52.8438C93.8802 52.8438 94.5365 52.6719 95.1406 52.3281C95.7552 51.9844 96.1875 51.5677 96.4375 51.0781C96.6979 50.5781 96.8281 49.9323 96.8281 49.1406V48.125ZM106.891 62.3125V39.4062H112.844V41.8594C113.667 40.8281 114.422 40.1302 115.109 39.7656C116.036 39.276 117.062 39.0312 118.188 39.0312C120.406 39.0312 122.12 39.8802 123.328 41.5781C124.547 43.276 125.156 45.375 125.156 47.875C125.156 50.6354 124.495 52.7448 123.172 54.2031C121.849 55.651 120.177 56.375 118.156 56.375C117.177 56.375 116.281 56.2083 115.469 55.875C114.667 55.5417 113.948 55.0469 113.312 54.3906V62.3125H106.891ZM113.266 47.75C113.266 49.0625 113.542 50.0365 114.094 50.6719C114.646 51.3073 115.344 51.625 116.188 51.625C116.927 51.625 117.547 51.3229 118.047 50.7188C118.547 50.1042 118.797 49.0677 118.797 47.6094C118.797 46.2656 118.536 45.2812 118.016 44.6562C117.495 44.0208 116.859 43.7031 116.109 43.7031C115.297 43.7031 114.62 44.0208 114.078 44.6562C113.536 45.2917 113.266 46.3229 113.266 47.75ZM142.188 44.0625H137.578V56H131.203V44.0625H126.594V39.4219H142.188V44.0625Z" fill="white"/>
</g>
<defs>
<clipPath id="clip0_170_52">
<rect width="189.38" height="97" rx="20" fill="white"/>
</clipPath>
</defs>
</svg>
