<svg width="62" height="62" viewBox="0 0 62 62" fill="none" xmlns="http://www.w3.org/2000/svg">
<g filter="url(#filter0_d_171_123)">
<rect x="4" width="54" height="54" rx="27" fill="#6E96FF"/>
<path d="M46.9676 21.6737C46.9767 21.47 46.9814 21.2658 46.9814 21.0624C46.9814 13.7041 40.9949 7.71777 33.6368 7.71777C30.5862 7.71777 27.7147 8.72004 25.3329 10.6162C23.2658 12.2617 21.7256 14.5043 20.9256 17.0018C19.9873 16.6741 18.986 16.4999 17.9537 16.4999C13.0166 16.5 9 20.5166 9 25.4536C9 30.3906 13.0166 34.4072 17.9536 34.4072H45.5561C49.1093 34.4072 52 31.5164 52 27.9632C52.0001 24.8985 49.8852 22.3188 46.9676 21.6737ZM45.5561 32.8111H17.9537C13.8965 32.8111 10.5959 29.5105 10.5959 25.4533C10.5959 21.3962 13.8965 18.0956 17.9537 18.0956C20.5275 18.0956 22.8713 19.4057 24.2232 21.6002C24.4544 21.9755 24.9459 22.0922 25.321 21.8612C25.6963 21.63 25.813 21.1385 25.582 20.7633C24.7729 19.4501 23.6713 18.3979 22.3885 17.667C23.8735 12.7183 28.4114 9.31356 33.6369 9.31356C40.1152 9.31356 45.3857 14.5841 45.3857 21.0624C45.3857 21.4637 45.3653 21.8682 45.3251 22.2645C45.3037 22.4753 45.3671 22.6861 45.5012 22.8502C45.6355 23.0144 45.8294 23.1183 46.0403 23.1392C48.5282 23.3853 50.4044 25.4592 50.4044 27.9631C50.4043 30.6364 48.2294 32.8111 45.5561 32.8111Z" fill="white"/>
<path d="M42.2906 39.4308L41.2835 38.8493L42.2906 38.2678C42.6722 38.0475 42.8031 37.5594 42.5826 37.1778C42.3624 36.7962 41.8745 36.6654 41.4927 36.8858L40.4856 37.4671V36.3043C40.4856 35.8636 40.1283 35.5063 39.6877 35.5063C39.247 35.5063 38.8897 35.8636 38.8897 36.3043V37.4672L37.8826 36.8857C37.501 36.6652 37.0129 36.796 36.7926 37.1777C36.5722 37.5593 36.7031 38.0474 37.0847 38.2677L38.0917 38.8492L37.0847 39.4307C36.703 39.651 36.5722 40.139 36.7926 40.5206C36.9404 40.7767 37.2085 40.9197 37.4844 40.9197C37.6196 40.9197 37.757 40.8852 37.8826 40.8127L38.8897 40.2312V41.3942C38.8897 41.8348 39.247 42.1921 39.6877 42.1921C40.1283 42.1921 40.4856 41.8348 40.4856 41.3942V40.2313L41.4927 40.8126C41.6183 40.8853 41.7554 40.9196 41.8908 40.9196C42.1666 40.9196 42.4348 40.7765 42.5826 40.5206C42.8031 40.1391 42.6722 39.6511 42.2906 39.4308Z" fill="white"/>
<path d="M23.9157 39.4739L22.9085 38.8924L23.9157 38.3109C24.2971 38.0907 24.4278 37.6027 24.2075 37.2211C23.9872 36.8394 23.4991 36.7088 23.1176 36.929L22.1104 37.5106V36.3476C22.1104 35.907 21.7532 35.5497 21.3125 35.5497C20.8718 35.5497 20.5146 35.907 20.5146 36.3476V37.5105L19.5074 36.929C19.1258 36.7084 18.6378 36.8393 18.4175 37.221C18.1972 37.6026 18.328 38.0906 18.7095 38.3109L19.7166 38.8924L18.7095 39.4739C18.3279 39.6942 18.1971 40.1823 18.4175 40.5639C18.5653 40.8198 18.8335 40.963 19.1093 40.963C19.2446 40.963 19.3819 40.9285 19.5075 40.856L20.5147 40.2745V41.4373C20.5147 41.878 20.8719 42.2353 21.3126 42.2353C21.7533 42.2353 22.1105 41.878 22.1105 41.4373V40.2745L23.1177 40.856C23.2433 40.9286 23.3805 40.963 23.5159 40.963C23.7917 40.963 24.0599 40.8199 24.2077 40.5639C24.4281 40.1823 24.2973 39.6942 23.9157 39.4739Z" fill="white"/>
<path d="M33.1031 44.5208L32.096 43.9393L33.1031 43.3578C33.4847 43.1375 33.6155 42.6494 33.3951 42.2678C33.1747 41.8862 32.687 41.7553 32.3051 41.9758L31.2979 42.5573V41.3944C31.2979 40.9537 30.9407 40.5964 30.5 40.5964C30.0593 40.5964 29.7021 40.9537 29.7021 41.3944V42.5573L28.6949 41.9758C28.3131 41.7553 27.8253 41.8863 27.605 42.2678C27.3847 42.6494 27.5155 43.1375 27.897 43.3578L28.9041 43.9393L27.897 44.5208C27.5154 44.7411 27.3846 45.2291 27.605 45.6107C27.7528 45.8666 28.021 46.0098 28.2968 46.0098C28.4321 46.0098 28.5694 45.9753 28.695 45.9028L29.7022 45.3213V46.4842C29.7022 46.9249 30.0594 47.2822 30.5001 47.2822C30.9408 47.2822 31.298 46.9249 31.298 46.4842V45.3213L32.3052 45.9028C32.4308 45.9755 32.568 46.0098 32.7033 46.0098C32.9791 46.0098 33.2473 45.8667 33.3952 45.6107C33.6156 45.229 33.4847 44.7411 33.1031 44.5208Z" fill="white"/>
</g>
<defs>
<filter id="filter0_d_171_123" x="0" y="0" width="62" height="62" filterUnits="userSpaceOnUse" color-interpolation-filters="sRGB">
<feFlood flood-opacity="0" result="BackgroundImageFix"/>
<feColorMatrix in="SourceAlpha" type="matrix" values="0 0 0 0 0 0 0 0 0 0 0 0 0 0 0 0 0 0 127 0" result="hardAlpha"/>
<feOffset dy="4"/>
<feGaussianBlur stdDeviation="2"/>
<feComposite in2="hardAlpha" operator="out"/>
<feColorMatrix type="matrix" values="0 0 0 0 0 0 0 0 0 0 0 0 0 0 0 0 0 0 0.25 0"/>
<feBlend mode="normal" in2="BackgroundImageFix" result="effect1_dropShadow_171_123"/>
<feBlend mode="normal" in="SourceGraphic" in2="effect1_dropShadow_171_123" result="shape"/>
</filter>
</defs>
</svg>
