<svg width="204" height="90" viewBox="0 0 204 90" fill="none" xmlns="http://www.w3.org/2000/svg">
<g filter="url(#filter0_d_171_68)">
<path d="M13.6714 73.4712H13.0314C11.922 73.4712 10.8554 73.3645 9.83137 73.1512C8.80737 72.9379 7.89004 72.5539 7.07937 71.9992C6.31137 71.4445 5.67137 70.6765 5.15937 69.6952C4.69004 68.7139 4.45537 67.4339 4.45537 65.8552V34.6872C4.45537 33.1512 4.69004 31.8925 5.15937 30.9112C5.6287 29.9299 6.24737 29.1619 7.01537 28.6072C7.78337 28.0099 8.65804 27.6045 9.63937 27.3912C10.6207 27.1352 11.6234 27.0072 12.6474 27.0072H13.6714V73.4712ZM27.4314 65.5992C27.4314 67.2205 27.154 68.5432 26.5994 69.5672C26.0874 70.5912 25.426 71.4019 24.6154 71.9992C23.8474 72.5539 22.994 72.9379 22.0554 73.1512C21.1594 73.3645 20.3274 73.4712 19.5594 73.4712H18.1514V60.4152C18.1514 59.5192 18.0874 58.6872 17.9594 57.9192C17.8314 57.1085 17.4047 56.7032 16.6794 56.7032C16.2954 56.7032 15.9967 56.7459 15.7834 56.8312C15.57 56.9165 15.3567 57.0659 15.1434 57.2792L14.9514 56.5752C14.8234 56.1485 14.7594 55.5085 14.7594 54.6552C14.7594 53.4179 15.25 52.2872 16.2314 51.2632C17.2127 50.2392 18.6634 49.7272 20.5834 49.7272C22.7167 49.7272 24.402 50.4099 25.6394 51.7752C26.8767 53.0979 27.474 55.1032 27.4314 57.7912V65.5992ZM27.6234 33.0872C27.6234 34.4525 27.3674 35.5405 26.8554 36.3512C26.3434 37.1619 25.7247 37.8019 24.9994 38.2712C24.274 38.7405 23.506 39.0605 22.6954 39.2312C21.8847 39.3592 21.1807 39.4232 20.5834 39.4232C20.0714 39.4232 19.6447 39.3805 19.3034 39.2952V36.3512C19.3034 35.4552 19.09 34.7939 18.6634 34.3672C18.2367 33.9405 17.7034 33.7272 17.0634 33.7272C16.2527 33.7272 15.57 33.9832 15.0154 34.4952C14.8874 34.1539 14.802 33.8552 14.7594 33.5992C14.7594 33.3005 14.7594 32.9805 14.7594 32.6392C14.7594 32.1272 14.866 31.5512 15.0794 30.9112C15.3354 30.2285 15.698 29.6099 16.1674 29.0552C16.6794 28.4579 17.3194 27.9672 18.0874 27.5832C18.898 27.1565 19.858 26.9432 20.9674 26.9432C22.1194 26.9432 23.1007 27.1352 23.9114 27.5192C24.7647 27.9032 25.4474 28.3939 25.9594 28.9912C26.514 29.5459 26.9194 30.2072 27.1754 30.9752C27.474 31.7005 27.6234 32.4045 27.6234 33.0872ZM47.6024 50.9432C47.6024 50.4312 47.5597 49.9405 47.4744 49.4712C47.4317 49.0019 47.3037 48.5965 47.0904 48.2552C46.9197 47.8712 46.6424 47.5725 46.2584 47.3592C45.917 47.1032 45.4264 46.9752 44.7864 46.9752C44.445 46.9752 44.0824 47.0392 43.6984 47.1672C43.357 47.2525 43.037 47.4232 42.7384 47.6792C42.5677 47.3379 42.461 47.0179 42.4184 46.7192C42.3757 46.3779 42.3544 46.0365 42.3544 45.6952C42.3544 44.3299 42.9304 43.1992 44.0824 42.3032C45.2344 41.4072 46.621 40.9592 48.2424 40.9592C50.8024 40.9592 52.765 41.6205 54.1304 42.9432C55.4957 44.2232 56.1784 46.0792 56.1784 48.5112V73.4712C55.197 73.4712 54.1944 73.3645 53.1704 73.1512C52.189 72.8952 51.2717 72.4899 50.4184 71.9352C49.6077 71.3379 48.925 70.5699 48.3704 69.6312C47.8584 68.6499 47.6024 67.4125 47.6024 65.9192V50.9432ZM41.5864 63.4872C41.5864 63.9992 41.6077 64.4899 41.6504 64.9592C41.7357 65.4285 41.8637 65.8552 42.0344 66.2392C42.2477 66.5805 42.525 66.8792 42.8664 67.1352C43.2504 67.3485 43.7624 67.4552 44.4024 67.4552C44.7437 67.4552 45.085 67.4125 45.4264 67.3272C45.8104 67.1992 46.1517 67.0072 46.4504 66.7512C46.621 67.0925 46.7277 67.4339 46.7704 67.7752C46.813 68.0739 46.8344 68.3939 46.8344 68.7352C46.8344 70.1005 46.2584 71.2312 45.1064 72.1272C43.9544 73.0232 42.5677 73.4712 40.9464 73.4712C38.3864 73.4712 36.4237 72.7885 35.0584 71.4232C33.693 70.0579 33.0104 68.3512 33.0104 66.3032V48.5112C33.0104 47.1032 33.2664 45.9299 33.7784 44.9912C34.333 44.0099 35.0157 43.2205 35.8264 42.6232C36.6797 42.0259 37.597 41.5992 38.5784 41.3432C39.6024 41.0872 40.605 40.9592 41.5864 40.9592V63.4872ZM61.9479 40.9592H62.6519C64.8705 40.9592 66.7265 41.5565 68.2199 42.7512C69.7559 43.9459 70.5239 45.8445 70.5239 48.4472V73.4712H70.1399C69.1585 73.4712 68.1772 73.3432 67.1959 73.0872C66.2572 72.8312 65.3825 72.4259 64.5719 71.8712C63.8039 71.2739 63.1639 70.5272 62.6519 69.6312C62.1825 68.6925 61.9479 67.5405 61.9479 66.1752V40.9592ZM83.1319 46.5912C83.1319 47.7859 82.8972 48.7459 82.4279 49.4712C81.9585 50.1965 81.3825 50.7725 80.6999 51.1992C80.0599 51.5832 79.3559 51.8392 78.5879 51.9672C77.8199 52.0952 77.1585 52.1592 76.6039 52.1592C76.0065 52.1592 75.4945 52.1165 75.0679 52.0312V49.7272C75.0679 48.7459 74.8972 48.1272 74.5559 47.8712C74.2572 47.6152 73.8732 47.4872 73.4039 47.4872C72.9772 47.4872 72.6359 47.5725 72.3799 47.7432C72.1665 47.9139 71.9105 48.1699 71.6119 48.5112C71.4839 48.1699 71.3985 47.8285 71.3559 47.4872C71.3559 47.1032 71.3559 46.7405 71.3559 46.3992C71.3559 45.8445 71.4412 45.2472 71.6119 44.6072C71.8252 43.9672 72.1452 43.3912 72.5719 42.8792C73.0412 42.3245 73.6385 41.8765 74.3639 41.5352C75.0892 41.1512 76.0065 40.9592 77.1159 40.9592C79.1639 40.9592 80.6785 41.5139 81.6599 42.6232C82.6412 43.6899 83.1319 45.0125 83.1319 46.5912ZM94.9614 73.4712H94.3854C93.404 73.4712 92.4227 73.3645 91.4414 73.1512C90.5027 72.8952 89.6494 72.4899 88.8814 71.9352C88.156 71.3379 87.5587 70.5699 87.0894 69.6312C86.62 68.6925 86.3854 67.5405 86.3854 66.1752V48.5112C86.3854 46.9752 86.6414 45.7165 87.1534 44.7352C87.6654 43.7539 88.3267 42.9859 89.1374 42.4312C89.948 41.8765 90.8654 41.4925 91.8894 41.2792C92.9134 41.0659 93.9374 40.9592 94.9614 40.9592V73.4712ZM109.105 47.2952C109.105 47.9352 108.999 48.5965 108.785 49.2792C108.615 49.9619 108.295 50.5805 107.825 51.1352C107.356 51.6899 106.737 52.1379 105.969 52.4792C105.244 52.8205 104.327 52.9912 103.217 52.9912C102.321 52.9912 101.553 52.9059 100.913 52.7352V50.5592C100.913 49.6205 100.743 48.8312 100.401 48.1912C100.06 47.5512 99.3987 47.1885 98.4174 47.1032C97.948 47.1032 97.5427 47.1885 97.2014 47.3592C96.9027 47.4872 96.604 47.6579 96.3054 47.8712C96.0067 47.2739 95.8574 46.5912 95.8574 45.8232C95.8574 44.5432 96.412 43.4125 97.5214 42.4312C98.6307 41.4499 100.167 40.9592 102.129 40.9592H102.577C103.303 41.0019 104.049 41.1512 104.817 41.4072C105.585 41.6632 106.289 42.0472 106.929 42.5592C107.569 43.0712 108.081 43.7325 108.465 44.5432C108.892 45.3112 109.105 46.2285 109.105 47.2952ZM109.105 67.2632C109.105 68.2872 108.892 69.1832 108.465 69.9512C108.081 70.7192 107.569 71.3592 106.929 71.8712C106.289 72.3832 105.585 72.7672 104.817 73.0232C104.049 73.2792 103.303 73.4285 102.577 73.4712H102.129C100.167 73.4712 98.6307 72.9805 97.5214 71.9992C96.412 71.0179 95.8574 69.8872 95.8574 68.6072C95.8574 67.8392 96.0067 67.1565 96.3054 66.5592C96.86 67.0712 97.5 67.3272 98.2254 67.3272C99.292 67.2419 99.996 66.8792 100.337 66.2392C100.721 65.5992 100.913 64.8099 100.913 63.8712V61.6952C101.553 61.5245 102.321 61.4392 103.217 61.4392C104.327 61.4392 105.244 61.6099 105.969 61.9512C106.737 62.2925 107.356 62.7405 107.825 63.2952C108.295 63.8499 108.615 64.4899 108.785 65.2152C108.999 65.8979 109.105 66.5805 109.105 67.2632ZM114.26 27.0072H114.964C117.183 27.0072 119.039 27.6045 120.532 28.7992C122.068 29.9939 122.836 31.8925 122.836 34.4952V73.4712H122.452C121.471 73.4712 120.49 73.3432 119.508 73.0872C118.57 72.8312 117.695 72.4259 116.884 71.8712C116.116 71.2739 115.476 70.5272 114.964 69.6312C114.495 68.6925 114.26 67.5405 114.26 66.1752V27.0072ZM137.149 73.4712H136.509C135.528 73.4712 134.568 73.3645 133.629 73.1512C132.69 72.8952 131.837 72.4899 131.069 71.9352C130.344 71.3379 129.746 70.5699 129.277 69.6312C128.808 68.6925 128.573 67.5405 128.573 66.1752V48.9592C128.573 46.6125 129.128 44.6925 130.237 43.1992C131.389 41.7059 133.245 40.9592 135.805 40.9592C137.512 40.9592 138.92 41.4072 140.029 42.3032C141.138 43.1565 141.693 44.5432 141.693 46.4632C141.693 47.1032 141.608 47.5725 141.437 47.8712C140.84 47.3592 140.2 47.1032 139.517 47.1032C138.578 47.1032 137.938 47.4232 137.597 48.0632C137.298 48.7032 137.149 49.3859 137.149 50.1112V73.4712ZM142.845 41.0232C143.058 40.9805 143.272 40.9592 143.485 40.9592H144.125C146.429 40.9592 148.221 41.5565 149.501 42.7512C150.781 43.9032 151.421 45.5672 151.421 47.7432V51.2632C151.421 54.1645 150.696 56.3192 149.245 57.7272C147.794 59.1352 146.024 59.8392 143.933 59.8392H143.485C141.864 59.7539 140.541 59.2205 139.517 58.2392C138.536 57.2152 138.045 55.9992 138.045 54.5912C138.045 54.3779 138.045 54.1859 138.045 54.0152C138.088 53.8445 138.173 53.5885 138.301 53.2472C138.642 53.5885 138.941 53.8445 139.197 54.0152C139.453 54.1859 139.88 54.2712 140.477 54.2712C141.458 54.2712 142.098 53.9299 142.397 53.2472C142.696 52.5219 142.845 51.6899 142.845 50.7512V41.0232ZM151.165 67.2632C151.165 68.4579 150.952 69.4605 150.525 70.2712C150.141 71.0392 149.629 71.6792 148.989 72.1912C148.349 72.6605 147.645 73.0019 146.877 73.2152C146.109 73.3859 145.362 73.4712 144.637 73.4712C142.461 73.4712 140.925 72.9379 140.029 71.8712C139.133 70.8045 138.685 69.6099 138.685 68.2872C138.685 68.0739 138.685 67.8179 138.685 67.5192C138.728 67.2205 138.834 66.9005 139.005 66.5592C139.56 67.0712 140.2 67.3272 140.925 67.3272C141.949 67.2419 142.546 66.9005 142.717 66.3032C142.888 65.7059 142.973 64.9592 142.973 64.0632V61.6952C143.613 61.5245 144.381 61.4392 145.277 61.4392C146.386 61.4392 147.304 61.6099 148.029 61.9512C148.797 62.2925 149.416 62.7405 149.885 63.2952C150.354 63.8499 150.674 64.4899 150.845 65.2152C151.058 65.8979 151.165 66.5805 151.165 67.2632ZM156.885 40.9592H157.589C159.808 40.9592 161.664 41.5565 163.157 42.7512C164.693 43.9459 165.461 45.8445 165.461 48.4472V73.4712H165.077C164.096 73.4712 163.115 73.3432 162.133 73.0872C161.195 72.8312 160.32 72.4259 159.509 71.8712C158.741 71.2739 158.101 70.5272 157.589 69.6312C157.12 68.6925 156.885 67.5405 156.885 66.1752V40.9592ZM178.069 46.5912C178.069 47.7859 177.835 48.7459 177.365 49.4712C176.896 50.1965 176.32 50.7725 175.637 51.1992C174.997 51.5832 174.293 51.8392 173.525 51.9672C172.757 52.0952 172.096 52.1592 171.541 52.1592C170.944 52.1592 170.432 52.1165 170.005 52.0312V49.7272C170.005 48.7459 169.835 48.1272 169.493 47.8712C169.195 47.6152 168.811 47.4872 168.341 47.4872C167.915 47.4872 167.573 47.5725 167.317 47.7432C167.104 47.9139 166.848 48.1699 166.549 48.5112C166.421 48.1699 166.336 47.8285 166.293 47.4872C166.293 47.1032 166.293 46.7405 166.293 46.3992C166.293 45.8445 166.379 45.2472 166.549 44.6072C166.763 43.9672 167.083 43.3912 167.509 42.8792C167.979 42.3245 168.576 41.8765 169.301 41.5352C170.027 41.1512 170.944 40.9592 172.053 40.9592C174.101 40.9592 175.616 41.5139 176.597 42.6232C177.579 43.6899 178.069 45.0125 178.069 46.5912Z" fill="#6E96FF"/>
</g>
<g filter="url(#filter1_d_171_68)">
<path d="M192.53 36.6795C192.564 34.6416 192.3 26.7089 188.654 21.4105C184.324 15.1189 170.892 10.2438 162.104 13.1795C155.622 15.3445 149.856 25.9382 149.856 25.9382L183.84 38.4493C185.14 36.3509 184.426 29.6598 184.426 29.6598C184.426 29.6598 186.151 30.7922 188.245 36.6482L192.53 36.6795Z" fill="#DD1B40"/>
<path d="M151.97 25.6319L182.077 36.7157C185.037 37.8054 186.551 41.0939 185.459 44.0605L183.786 48.6054C182.694 51.572 179.409 53.0935 176.448 52.0038L146.342 40.92C143.382 39.8302 141.867 36.5418 142.959 33.5752L144.633 29.0303C145.725 26.0637 149.01 24.5421 151.97 25.6319Z" fill="#F9F9F9"/>
<path d="M198.196 42.7339C196.949 46.1305 193.19 47.8744 189.801 46.628C186.413 45.3821 184.679 41.6174 185.931 38.2223C187.182 34.8272 190.943 33.0876 194.33 34.338C197.714 35.5837 199.445 39.3429 198.196 42.7339Z" fill="#F9F9F9"/>
<path d="M184.439 29.5904C184.076 26.6924 184.098 25.7114 183.359 23.0028C183.359 23.0028 185.137 26.3446 185.341 30.5835L184.439 29.5904Z" fill="#664635"/>
</g>
<defs>
<filter id="filter0_d_171_68" x="0.455322" y="26.9432" width="181.614" height="54.528" filterUnits="userSpaceOnUse" color-interpolation-filters="sRGB">
<feFlood flood-opacity="0" result="BackgroundImageFix"/>
<feColorMatrix in="SourceAlpha" type="matrix" values="0 0 0 0 0 0 0 0 0 0 0 0 0 0 0 0 0 0 127 0" result="hardAlpha"/>
<feOffset dy="4"/>
<feGaussianBlur stdDeviation="2"/>
<feComposite in2="hardAlpha" operator="out"/>
<feColorMatrix type="matrix" values="0 0 0 0 0 0 0 0 0 0 0 0 0 0 0 0 0 0 0.25 0"/>
<feBlend mode="normal" in2="BackgroundImageFix" result="effect1_dropShadow_171_68"/>
<feBlend mode="normal" in="SourceGraphic" in2="effect1_dropShadow_171_68" result="shape"/>
</filter>
<filter id="filter1_d_171_68" x="138.605" y="12.3037" width="63.9972" height="48.0525" filterUnits="userSpaceOnUse" color-interpolation-filters="sRGB">
<feFlood flood-opacity="0" result="BackgroundImageFix"/>
<feColorMatrix in="SourceAlpha" type="matrix" values="0 0 0 0 0 0 0 0 0 0 0 0 0 0 0 0 0 0 127 0" result="hardAlpha"/>
<feOffset dy="4"/>
<feGaussianBlur stdDeviation="2"/>
<feComposite in2="hardAlpha" operator="out"/>
<feColorMatrix type="matrix" values="0 0 0 0 0 0 0 0 0 0 0 0 0 0 0 0 0 0 0.25 0"/>
<feBlend mode="normal" in2="BackgroundImageFix" result="effect1_dropShadow_171_68"/>
<feBlend mode="normal" in="SourceGraphic" in2="effect1_dropShadow_171_68" result="shape"/>
</filter>
</defs>
</svg>
